<?xml version="1.0" encoding="utf-8"?>
<!-- Generator: Adobe Illustrator 21.0.0, SVG Export Plug-In . SVG Version: 6.00 Build 0)  -->
<svg version="1.1" id="Layer_1" xmlns="http://www.w3.org/2000/svg" xmlns:xlink="http://www.w3.org/1999/xlink" x="0px" y="0px"
	 viewBox="0 0 48 22" style="enable-background:new 0 0 48 22;" xml:space="preserve">
<style type="text/css">
	.st0{fill:#2F99D5;}
</style>
<g>
	<g>
		<path class="st0" d="M46,12l-8.3,7.4h-9.9V17h9.6c0.3,0,0.6-0.1,0.8-0.3l9.4-8.5c0.5-0.4,0.5-1.2,0.1-1.7C47.2,6,46.5,6,46,6.4
			l-9.1,8.2h-9.1v-2.4h8.5c0.3,0,0.6-0.1,0.8-0.3l10.6-9.6c0.4-0.3,0.5-0.9,0.3-1.3c-0.2-0.5-0.6-0.8-1.1-0.8H11.7
			c-0.3,0-0.6,0.1-0.8,0.3L0.4,10.1C0,10.4-0.1,11,0.1,11.4c0.2,0.5,0.6,0.8,1.1,0.8h10v2.4h-10c-0.7,0-1.2,0.5-1.2,1.2
			C0,16.5,0.5,17,1.2,17h10v2.4h-10C0.5,19.4,0,20,0,20.6s0.5,1.2,1.2,1.2h11.2h14.2h11.5c0.3,0,0.6-0.1,0.8-0.3l8.7-7.8
			c0.5-0.4,0.5-1.2,0.1-1.7C47.2,11.6,46.5,11.5,46,12z M33,2.6L25,9.8h-9.8l7.9-7.2L33,2.6L33,2.6z M35.8,9.8h-7.2l7.9-7.2h7.2
			L35.8,9.8z M12.2,2.6h7.4l-7.9,7.2H4.3L12.2,2.6z M13.6,19.4v-7.2h11.8v7.2L13.6,19.4L13.6,19.4z"/>
	</g>
</g>
</svg>
